<svg width="36" height="37" viewBox="0 0 36 37" fill="none" xmlns="http://www.w3.org/2000/svg">
<rect y="0.5" width="36" height="36" rx="18" fill="#FFEAEF"/>
<path d="M11.334 19.3334C14.3925 19.6969 16.8038 22.1082 17.1673 25.1667C18.6649 24.3033 19.6103 22.7277 19.6673 21C22.5288 19.9934 24.5022 17.3622 24.6673 14.3334C24.6673 12.9527 23.548 11.8334 22.1673 11.8334C19.1384 11.9985 16.5073 13.9719 15.5007 16.8334C13.773 16.8904 12.1973 17.8358 11.334 19.3334" stroke="#FF2B67" stroke-width="2" stroke-linecap="round" stroke-linejoin="round"/>
<path d="M13.8331 20.1666C12.0589 21.1683 11.0699 23.1463 11.3331 25.1666C13.3534 25.4298 15.3314 24.4408 16.3331 22.6666" stroke="#FF2B67" stroke-width="2" stroke-linecap="round" stroke-linejoin="round"/>
<ellipse cx="20.4993" cy="16" rx="0.833334" ry="0.833333" stroke="#FF2B67" stroke-width="2" stroke-linecap="round" stroke-linejoin="round"/>
</svg>
