<svg width="36" height="37" viewBox="0 0 36 37" fill="none" xmlns="http://www.w3.org/2000/svg">
<rect y="0.5" width="36" height="36" rx="18" fill="#E5F0FF"/>
<circle cx="18" cy="18.5" r="7.5" stroke="#0476F3" stroke-width="2" stroke-linecap="round" stroke-linejoin="round"/>
<path d="M15.5004 16H15.5087" stroke="#0476F3" stroke-width="2" stroke-linecap="round" stroke-linejoin="round"/>
<path d="M20.5004 16H20.5087" stroke="#0476F3" stroke-width="2" stroke-linecap="round" stroke-linejoin="round"/>
<path d="M15.666 19.3334C15.666 18.7811 15.2183 18.3334 14.666 18.3334C14.1137 18.3334 13.666 18.7811 13.666 19.3334H15.666ZM22.3327 19.3334C22.3327 18.7811 21.885 18.3334 21.3327 18.3334C20.7804 18.3334 20.3327 18.7811 20.3327 19.3334H22.3327ZM21.3327 20.3334C21.885 20.3334 22.3327 19.8857 22.3327 19.3334C22.3327 18.7811 21.885 18.3334 21.3327 18.3334V20.3334ZM14.666 18.3334C14.1137 18.3334 13.666 18.7811 13.666 19.3334C13.666 19.8857 14.1137 20.3334 14.666 20.3334V18.3334ZM13.666 19.3334C13.666 21.7266 15.6061 23.6667 17.9993 23.6667V21.6667C16.7107 21.6667 15.666 20.622 15.666 19.3334H13.666ZM17.9993 23.6667C20.3926 23.6667 22.3327 21.7266 22.3327 19.3334H20.3327C20.3327 20.622 19.288 21.6667 17.9993 21.6667V23.6667ZM21.3327 18.3334H14.666V20.3334H21.3327V18.3334Z" fill="#0476F3"/>
</svg>
