<svg width="24" height="24" fill="none" xmlns="http://www.w3.org/2000/svg"><path d="M19.952 8.046c.009.176.012.354.012.53 0 5.424-4.127 11.676-11.674 11.676-2.318 0-4.474-.68-6.29-1.844.322.038.648.057.978.057a8.235 8.235 0 0 0 5.096-1.755 4.107 4.107 0 0 1-3.833-2.85 4.197 4.197 0 0 0 1.854-.07 4.107 4.107 0 0 1-3.292-4.025v-.05a4.095 4.095 0 0 0 1.859.513 4.103 4.103 0 0 1-1.27-5.48 11.647 11.647 0 0 0 8.458 4.289 4.142 4.142 0 0 1-.105-.936A4.1 4.1 0 0 1 15.847 4c1.18 0 2.246.497 2.995 1.295a8.263 8.263 0 0 0 2.606-.996 4.118 4.118 0 0 1-1.805 2.27c.83-.1 1.62-.319 2.357-.646a8.287 8.287 0 0 1-2.048 2.123Z" fill="#212121"/></svg>