<svg width="133" height="40" fill="none" xmlns="http://www.w3.org/2000/svg"><path d="M49.357 8.597h2.347v1.786h.179a4.189 4.189 0 0 1 1.71-1.556c.73-.358 1.538-.536 2.423-.536 1.7 0 3.01.578 3.928 1.734.918 1.14 1.378 2.9 1.378 5.281 0 2.347-.46 4.107-1.378 5.28-.918 1.157-2.168 1.735-3.75 1.735-1.854 0-3.206-.612-4.056-1.836h-.153v5.944h-2.628V8.597Zm5.919 11.505c1.207 0 2.066-.357 2.576-1.071.51-.715.766-1.905.766-3.572v-.23c0-1.7-.256-2.908-.766-3.622-.51-.731-1.369-1.097-2.576-1.097-1.14 0-1.973.4-2.5 1.2-.527.798-.791 1.972-.791 3.52v.204c0 1.53.264 2.695.79 3.495.528.782 1.361 1.173 2.5 1.173ZM69.619 22.321c-2.16 0-3.767-.57-4.822-1.709-1.054-1.14-1.581-2.908-1.581-5.306s.527-4.166 1.581-5.306c1.055-1.14 2.662-1.71 4.822-1.71 1.956 0 3.418.537 4.387 1.608.97 1.054 1.454 2.738 1.454 5.051v1.02h-9.54c.068 1.446.39 2.517.97 3.215.594.68 1.513 1.02 2.754 1.02.97 0 1.752-.23 2.347-.689.595-.459.893-1.165.893-2.117h2.576c0 1.599-.544 2.823-1.632 3.673-1.072.834-2.475 1.25-4.21 1.25Zm3.112-8.341c0-2.381-1.037-3.572-3.112-3.572-1.157 0-2.024.29-2.602.867-.579.562-.927 1.463-1.046 2.705h6.76ZM83.794 22.321c-2.16 0-3.767-.57-4.822-1.709-1.054-1.14-1.581-2.908-1.581-5.306s.527-4.166 1.581-5.306c1.055-1.14 2.662-1.71 4.822-1.71 1.956 0 3.418.537 4.388 1.608.969 1.054 1.454 2.738 1.454 5.051v1.02h-9.541c.068 1.446.391 2.517.97 3.215.594.68 1.513 1.02 2.754 1.02.97 0 1.752-.23 2.347-.689.596-.459.893-1.165.893-2.117h2.577c0 1.599-.545 2.823-1.633 3.673-1.072.834-2.475 1.25-4.21 1.25Zm3.112-8.341c0-2.381-1.037-3.572-3.112-3.572-1.157 0-2.024.29-2.602.867-.578.562-.927 1.463-1.046 2.705h6.76ZM92.331 8.597h2.628l-.255 2.066h.153c.612-1.581 1.64-2.372 3.086-2.372.477 0 .893.068 1.25.204v2.5h-.944c-1.003 0-1.802.289-2.397.867-.596.579-.893 1.463-.893 2.653v7.5H92.33V8.597ZM101.25 3.571h2.627v18.444h-2.627V3.571ZM107.353 3.571h2.602V6.25h-2.602V3.571Zm0 5.026h2.628v13.418h-2.628V8.597ZM118.278 22.321c-1.837 0-3.24-.382-4.209-1.148-.952-.765-1.429-1.726-1.429-2.882v-.357a.792.792 0 0 0 .026-.128h2.576v.23c0 .731.298 1.284.893 1.658.596.357 1.352.536 2.271.536.816 0 1.496-.154 2.041-.46.561-.306.841-.74.841-1.3 0-.443-.153-.8-.459-1.072-.306-.29-.68-.51-1.122-.663-.442-.17-1.08-.366-1.914-.587-1.02-.255-1.853-.51-2.5-.765a4.354 4.354 0 0 1-1.658-1.148c-.442-.51-.663-1.19-.663-2.041 0-1.225.502-2.177 1.505-2.857 1.004-.698 2.339-1.046 4.005-1.046 1.038 0 1.939.161 2.704.485.783.306 1.378.74 1.786 1.3a3.05 3.05 0 0 1 .638 1.888l-.026.51h-2.576v-.178c0-.561-.23-1.012-.689-1.352-.442-.357-1.131-.536-2.066-.536-.902 0-1.565.162-1.99.485-.408.306-.612.672-.612 1.097 0 .527.255.918.765 1.173s1.318.51 2.423.766c1.072.255 1.948.518 2.628.79.68.256 1.267.664 1.76 1.225.493.544.74 1.275.74 2.194 0 1.428-.519 2.483-1.556 3.163-1.021.68-2.398 1.02-4.133 1.02ZM129.85 22.296c-1.021 0-1.761-.29-2.22-.867-.459-.596-.689-1.327-.689-2.194v-8.47h-1.632V8.597h1.658v-3.75h2.602v3.75h2.27v2.168h-2.27v8.215c0 .782.366 1.173 1.097 1.173h1.173v1.786c-.221.102-.527.187-.918.255a5.992 5.992 0 0 1-1.071.102Z" fill="#fff"/><path fill="#E1E4E8" d="M92.213 26.429h40v13.309h-40z"/><path d="M97.928 30h3.532c.324 0 .617.066.881.198.264.126.47.305.62.539.15.228.225.491.225.791 0 .341-.096.638-.288.89a1.44 1.44 0 0 1-.719.512v.036c.348.066.629.237.845.512.222.27.333.59.333.962 0 .557-.18.986-.54 1.285-.353.294-.806.44-1.357.44h-3.532V30Zm3.164 2.463c.239 0 .425-.06.557-.18a.63.63 0 0 0 .198-.476c0-.228-.063-.402-.189-.522-.12-.12-.288-.18-.504-.18H99.24v1.358h1.852Zm.152 2.597a.794.794 0 0 0 .558-.197c.143-.132.215-.321.215-.567a.715.715 0 0 0-.215-.539c-.144-.138-.354-.207-.63-.207H99.24v1.51h2.004ZM106.212 30h4.845v1.105h-3.542v1.358h3.146v1.105h-3.146v1.492h3.596v1.106h-4.899V30ZM115.497 31.123h-1.906V30h5.114v1.123H116.8v5.043h-1.303v-5.042ZM122.454 30h1.636l2.409 6.166h-1.42l-.44-1.178h-2.805l-.44 1.178h-1.348L122.454 30Zm1.771 3.9-.584-1.563a24.393 24.393 0 0 1-.387-1.214h-.045a23.67 23.67 0 0 1-.386 1.214l-.584 1.564h1.986Z" fill="#444D56"/><path d="M20.785 0c-15.555 0-20 4.444-20 20 0 15.556 4.456 20 20 20 15.545 0 20-4.444 20-20 0-15.556-4.455-20-20-20Z" fill="#00AA45"/><path fill-rule="evenodd" clip-rule="evenodd" d="M5.962 5.177C3.348 7.79 2.214 12.252 2.214 20c0 7.747 1.136 12.208 3.752 14.823 2.616 2.615 7.077 3.748 14.82 3.748 7.741 0 12.203-1.133 14.818-3.748 2.616-2.615 3.753-7.076 3.753-14.823 0-7.747-1.137-12.208-3.753-14.823C32.99 2.562 28.527 1.43 20.785 1.43c-7.748 0-12.209 1.133-14.823 3.748ZM.785 20c0-15.556 4.445-20 20-20 15.545 0 20 4.444 20 20 0 15.556-4.455 20-20 20-15.544 0-20-4.444-20-20Z" fill="#219653"/><path fill-rule="evenodd" clip-rule="evenodd" d="M20.126 9.286H11.5V33.57h6.703v-5.079h1.923c5.467 0 9.945-4.274 9.945-9.603s-4.478-9.603-9.945-9.603Zm-1.923 12.698v-6.19h1.923c1.816 0 3.242 1.41 3.242 3.095 0 1.684-1.426 3.095-3.242 3.095h-1.923Z" fill="#24292E"/><path fill-rule="evenodd" clip-rule="evenodd" d="M13.643 8.571h7.912c5.098 0 9.23 3.98 9.23 8.89 0 4.909-4.132 8.888-9.23 8.888h-2.638v5.08h-5.274V8.57Zm5.274 12.699h2.638c2.184 0 3.956-1.706 3.956-3.81s-1.771-3.81-3.956-3.81h-2.638v7.62Z" fill="#fff"/><path fill-rule="evenodd" clip-rule="evenodd" d="M12.928 7.857h8.626c5.467 0 9.945 4.275 9.945 9.603 0 5.33-4.478 9.604-9.945 9.604h-1.923v5.079h-6.703V7.857Zm1.428 1.429v21.428h3.847v-5.08h3.351c4.73 0 8.517-3.684 8.517-8.174 0-4.49-3.788-8.174-8.517-8.174h-7.198Zm3.847 3.65h3.351c2.554 0 4.67 2 4.67 4.524s-2.116 4.524-4.67 4.524h-3.351v-9.048Zm1.428 1.43v6.19h1.923c1.816 0 3.242-1.411 3.242-3.096 0-1.684-1.426-3.095-3.242-3.095h-1.923Z" fill="#24292E"/></svg>