<svg width="400" height="554" viewBox="0 0 400 554" fill="none" xmlns="http://www.w3.org/2000/svg">
<g filter="url(#filter0_d_11095_157787)">
<rect x="8" y="4" width="344" height="172" rx="8" fill="white"/>
<circle cx="36" cy="32" r="12" fill="#E6FBF7"/>
<rect x="56" y="20" width="80" height="8" rx="4" fill="#E1E4E8"/>
<rect x="56" y="32" width="120" height="8" rx="4" fill="#E1E4E8"/>
<rect x="24" y="52" width="312" height="8" rx="4" fill="#E1E4E8"/>
<rect x="24" y="64" width="291" height="8" rx="4" fill="#E1E4E8"/>
<rect x="23.5" y="79.5" width="313" height="57" rx="8.5" fill="#FAFBFC" stroke="#E1E4E8"/>
<path d="M164 131.68C168.242 131.68 171.68 128.242 171.68 124C171.68 119.759 168.242 116.32 164 116.32C159.759 116.32 156.32 119.759 156.32 124C156.32 128.242 159.759 131.68 164 131.68Z" fill="#EA4C89"/>
<path fill-rule="evenodd" clip-rule="evenodd" d="M164 116C159.584 116 156 119.584 156 124C156 128.416 159.584 132 164 132C168.408 132 172 128.416 172 124C172 119.584 168.408 116 164 116ZM169.284 119.688C170.239 120.85 170.811 122.334 170.829 123.939C170.603 123.896 168.347 123.436 166.074 123.722C166.022 123.61 165.978 123.488 165.926 123.367C165.787 123.037 165.631 122.698 165.475 122.377C167.991 121.354 169.137 119.879 169.284 119.688ZM164 117.18C165.735 117.18 167.323 117.831 168.529 118.898C168.408 119.072 167.375 120.451 164.946 121.362C163.826 119.306 162.586 117.623 162.395 117.362C162.907 117.241 163.445 117.18 164 117.18ZM161.093 117.822C161.275 118.065 162.49 119.757 163.627 121.77C160.434 122.62 157.614 122.603 157.31 122.603C157.753 120.486 159.184 118.725 161.093 117.822ZM157.163 124.009C157.163 123.939 157.163 123.87 157.163 123.8C157.458 123.809 160.772 123.852 164.182 122.829C164.382 123.21 164.564 123.601 164.738 123.991C164.651 124.017 164.555 124.043 164.469 124.069C160.946 125.206 159.072 128.312 158.915 128.573C157.831 127.367 157.163 125.761 157.163 124.009ZM164 130.837C162.421 130.837 160.963 130.299 159.809 129.397C159.931 129.145 161.319 126.473 165.171 125.128C165.189 125.119 165.197 125.119 165.215 125.111C166.178 127.601 166.568 129.692 166.672 130.291C165.848 130.646 164.946 130.837 164 130.837ZM167.809 129.666C167.74 129.249 167.375 127.254 166.482 124.798C168.625 124.46 170.499 125.015 170.733 125.093C170.438 126.993 169.345 128.633 167.809 129.666Z" fill="#C32361"/>
<path d="M32.6673 151.333H28.6673C28.4905 151.333 28.3209 151.404 28.1959 151.529C28.0709 151.654 28.0007 151.823 28.0007 152C28.0007 152.177 28.0709 152.346 28.1959 152.471C28.3209 152.596 28.4905 152.667 28.6673 152.667H32.6673C32.8441 152.667 33.0137 152.596 33.1387 152.471C33.2637 152.346 33.334 152.177 33.334 152C33.334 151.823 33.2637 151.654 33.1387 151.529C33.0137 151.404 32.8441 151.333 32.6673 151.333ZM35.334 148.667H28.6673C28.4905 148.667 28.3209 148.737 28.1959 148.862C28.0709 148.987 28.0007 149.157 28.0007 149.333C28.0007 149.51 28.0709 149.68 28.1959 149.805C28.3209 149.93 28.4905 150 28.6673 150H35.334C35.5108 150 35.6804 149.93 35.8054 149.805C35.9304 149.68 36.0007 149.51 36.0007 149.333C36.0007 149.157 35.9304 148.987 35.8054 148.862C35.6804 148.737 35.5108 148.667 35.334 148.667ZM36.6673 145.333H27.334C26.8036 145.333 26.2948 145.544 25.9198 145.919C25.5447 146.294 25.334 146.803 25.334 147.333V154C25.334 154.53 25.5447 155.039 25.9198 155.414C26.2948 155.789 26.8036 156 27.334 156H35.0607L37.5273 158.473C37.5896 158.535 37.6635 158.584 37.7447 158.617C37.8259 158.65 37.9129 158.667 38.0007 158.667C38.0881 158.669 38.1749 158.651 38.254 158.613C38.3757 158.563 38.4799 158.478 38.5535 158.369C38.6271 158.26 38.6667 158.132 38.6673 158V147.333C38.6673 146.803 38.4566 146.294 38.0815 145.919C37.7065 145.544 37.1978 145.333 36.6673 145.333ZM37.334 156.393L35.8073 154.86C35.745 154.798 35.6711 154.749 35.5899 154.716C35.5087 154.683 35.4217 154.666 35.334 154.667H27.334C27.1572 154.667 26.9876 154.596 26.8626 154.471C26.7376 154.346 26.6673 154.177 26.6673 154V147.333C26.6673 147.157 26.7376 146.987 26.8626 146.862C26.9876 146.737 27.1572 146.667 27.334 146.667H36.6673C36.8441 146.667 37.0137 146.737 37.1387 146.862C37.2637 146.987 37.334 147.157 37.334 147.333V156.393Z" fill="#959DA5"/>
<path d="M78.2007 150.72C78.0133 150.495 77.7789 150.314 77.514 150.19C77.249 150.065 76.96 150 76.6673 150H73.6273L74.0007 149.047C74.1559 148.629 74.2077 148.18 74.1514 147.739C74.0951 147.297 73.9324 146.875 73.6774 146.51C73.4224 146.145 73.0827 145.847 72.6873 145.642C72.2919 145.437 71.8527 145.331 71.4073 145.333C71.2791 145.334 71.1536 145.371 71.046 145.441C70.9384 145.51 70.8532 145.61 70.8007 145.727L68.9007 150H67.334C66.8036 150 66.2948 150.211 65.9198 150.586C65.5447 150.961 65.334 151.47 65.334 152V156.667C65.334 157.197 65.5447 157.706 65.9198 158.081C66.2948 158.456 66.8036 158.667 67.334 158.667H75.8207C76.2885 158.666 76.7415 158.502 77.1009 158.203C77.4602 157.903 77.7031 157.487 77.7873 157.027L78.634 152.36C78.6864 152.072 78.6747 151.775 78.5998 151.492C78.5249 151.208 78.3886 150.945 78.2007 150.72ZM68.6673 157.333H67.334C67.1572 157.333 66.9876 157.263 66.8626 157.138C66.7376 157.013 66.6673 156.843 66.6673 156.667V152C66.6673 151.823 66.7376 151.654 66.8626 151.529C66.9876 151.404 67.1572 151.333 67.334 151.333H68.6673V157.333ZM77.334 152.12L76.4873 156.787C76.4589 156.942 76.3763 157.082 76.2542 157.182C76.1322 157.282 75.9785 157.336 75.8207 157.333H70.0007V150.807L71.814 146.727C72.0006 146.781 72.174 146.874 72.3231 146.998C72.4722 147.123 72.5938 147.277 72.6802 147.452C72.7667 147.626 72.8161 147.816 72.8254 148.01C72.8346 148.204 72.8035 148.398 72.734 148.58L72.3807 149.533C72.3054 149.735 72.2799 149.952 72.3066 150.165C72.3332 150.378 72.4111 150.582 72.5335 150.759C72.656 150.936 72.8195 151.081 73.0099 151.181C73.2004 151.28 73.4122 151.333 73.6273 151.333H76.6673C76.7653 151.333 76.862 151.355 76.9508 151.396C77.0395 151.438 77.118 151.498 77.1807 151.573C77.2449 151.647 77.2919 151.735 77.3184 151.829C77.3449 151.924 77.3502 152.023 77.334 152.12Z" fill="#959DA5"/>
<rect x="156" y="88" width="80" height="8" rx="4" fill="#E1E4E8"/>
<rect x="156" y="102" width="120" height="8" rx="4" fill="#E1E4E8"/>
<path d="M24 88C24 83.5817 27.5817 80 32 80H148V136H32C27.5817 136 24 132.418 24 128V88Z" fill="#E1E4E8"/>
<rect x="8.5" y="4.5" width="343" height="171" rx="7.5" stroke="#E1E4E8"/>
</g>
<g filter="url(#filter1_d_11095_157787)">
<rect x="48" y="192" width="344" height="172" rx="8" fill="white"/>
<circle cx="76" cy="220" r="12" fill="#E5F0FF"/>
<rect x="96" y="208" width="48" height="8" rx="4" fill="#E1E4E8"/>
<rect x="96" y="220" width="120" height="8" rx="4" fill="#E1E4E8"/>
<rect x="64" y="240" width="312" height="8" rx="4" fill="#E1E4E8"/>
<rect x="64" y="252" width="187" height="8" rx="4" fill="#E1E4E8"/>
<rect x="63.5" y="267.5" width="313" height="57" rx="8.5" fill="#FAFBFC" stroke="#E1E4E8"/>
<g clip-path="url(#clip0_11095_157787)">
<g clip-path="url(#clip1_11095_157787)">
<path d="M203.989 304C199.588 304 196.02 307.668 196.02 312.192C196.02 315.811 198.303 318.882 201.469 319.965C201.868 320.041 202.014 319.787 202.014 319.571C202.014 319.376 202.006 318.73 202.003 318.046C199.786 318.541 199.318 317.079 199.318 317.079C198.956 316.133 198.433 315.881 198.433 315.881C197.71 315.372 198.488 315.383 198.488 315.383C199.288 315.441 199.709 316.227 199.709 316.227C200.42 317.479 201.574 317.117 202.028 316.908C202.1 316.378 202.306 316.017 202.534 315.813C200.764 315.605 198.904 314.903 198.904 311.764C198.904 310.87 199.215 310.139 199.725 309.565C199.642 309.359 199.369 308.526 199.802 307.397C199.802 307.397 200.471 307.177 201.994 308.237C202.63 308.055 203.311 307.965 203.989 307.961C204.666 307.965 205.348 308.055 205.985 308.237C207.506 307.177 208.174 307.397 208.174 307.397C208.608 308.526 208.335 309.359 208.252 309.565C208.763 310.139 209.073 310.87 209.073 311.764C209.073 314.91 207.208 315.603 205.434 315.806C205.72 316.06 205.974 316.559 205.974 317.323C205.974 318.419 205.965 319.301 205.965 319.571C205.965 319.789 206.108 320.045 206.512 319.964C209.677 318.88 211.958 315.81 211.958 312.192C211.958 307.668 208.39 304 203.989 304Z" fill="#161614"/>
<path d="M199.004 315.67C198.987 315.71 198.925 315.722 198.868 315.695C198.81 315.668 198.778 315.612 198.796 315.571C198.814 315.53 198.876 315.518 198.934 315.546C198.992 315.573 199.025 315.629 199.004 315.67ZM199.396 316.029C199.358 316.065 199.284 316.048 199.234 315.991C199.182 315.934 199.172 315.858 199.21 315.821C199.25 315.785 199.322 315.802 199.374 315.859C199.426 315.917 199.436 315.993 199.396 316.029L199.396 316.029ZM199.665 316.489C199.617 316.524 199.537 316.491 199.487 316.418C199.439 316.346 199.439 316.258 199.488 316.223C199.538 316.188 199.617 316.22 199.667 316.292C199.715 316.366 199.715 316.453 199.665 316.489L199.665 316.489ZM200.12 317.022C200.076 317.071 199.983 317.058 199.915 316.991C199.846 316.924 199.826 316.831 199.87 316.781C199.914 316.732 200.008 316.746 200.076 316.813C200.146 316.878 200.167 316.973 200.12 317.022H200.12ZM200.708 317.202C200.689 317.266 200.599 317.295 200.509 317.268C200.419 317.24 200.36 317.165 200.378 317.1C200.397 317.035 200.487 317.005 200.578 317.034C200.668 317.062 200.727 317.137 200.708 317.202H200.708ZM201.377 317.278C201.379 317.346 201.303 317.402 201.208 317.403C201.113 317.405 201.035 317.35 201.034 317.284C201.034 317.216 201.109 317.16 201.205 317.159C201.299 317.157 201.377 317.211 201.377 317.278ZM202.034 317.252C202.045 317.318 201.979 317.386 201.885 317.404C201.793 317.421 201.707 317.38 201.695 317.315C201.684 317.248 201.751 317.18 201.843 317.162C201.938 317.146 202.022 317.185 202.034 317.252Z" fill="#161614"/>
</g>
</g>
<rect x="196" y="276" width="80" height="8" rx="4" fill="#E1E4E8"/>
<rect x="196" y="290" width="120" height="8" rx="4" fill="#E1E4E8"/>
<path d="M64 276C64 271.582 67.5817 268 72 268H188V324H72C67.5817 324 64 320.418 64 316V276Z" fill="#E1E4E8"/>
<path d="M72.6673 339.333H68.6673C68.4905 339.333 68.3209 339.404 68.1959 339.529C68.0709 339.654 68.0007 339.823 68.0007 340C68.0007 340.177 68.0709 340.346 68.1959 340.471C68.3209 340.596 68.4905 340.667 68.6673 340.667H72.6673C72.8441 340.667 73.0137 340.596 73.1387 340.471C73.2637 340.346 73.334 340.177 73.334 340C73.334 339.823 73.2637 339.654 73.1387 339.529C73.0137 339.404 72.8441 339.333 72.6673 339.333ZM75.334 336.667H68.6673C68.4905 336.667 68.3209 336.737 68.1959 336.862C68.0709 336.987 68.0007 337.157 68.0007 337.333C68.0007 337.51 68.0709 337.68 68.1959 337.805C68.3209 337.93 68.4905 338 68.6673 338H75.334C75.5108 338 75.6804 337.93 75.8054 337.805C75.9304 337.68 76.0007 337.51 76.0007 337.333C76.0007 337.157 75.9304 336.987 75.8054 336.862C75.6804 336.737 75.5108 336.667 75.334 336.667ZM76.6673 333.333H67.334C66.8036 333.333 66.2948 333.544 65.9198 333.919C65.5447 334.294 65.334 334.803 65.334 335.333V342C65.334 342.53 65.5447 343.039 65.9198 343.414C66.2948 343.789 66.8036 344 67.334 344H75.0607L77.5273 346.473C77.5896 346.535 77.6635 346.584 77.7447 346.617C77.8259 346.65 77.9129 346.667 78.0007 346.667C78.0881 346.669 78.1749 346.651 78.254 346.613C78.3757 346.563 78.4799 346.478 78.5535 346.369C78.6271 346.26 78.6667 346.132 78.6673 346V335.333C78.6673 334.803 78.4566 334.294 78.0815 333.919C77.7065 333.544 77.1978 333.333 76.6673 333.333ZM77.334 344.393L75.8073 342.86C75.745 342.798 75.6711 342.749 75.5899 342.716C75.5087 342.683 75.4217 342.666 75.334 342.667H67.334C67.1572 342.667 66.9876 342.596 66.8626 342.471C66.7376 342.346 66.6673 342.177 66.6673 342V335.333C66.6673 335.157 66.7376 334.987 66.8626 334.862C66.9876 334.737 67.1572 334.667 67.334 334.667H76.6673C76.8441 334.667 77.0137 334.737 77.1387 334.862C77.2637 334.987 77.334 335.157 77.334 335.333V344.393Z" fill="#959DA5"/>
<path d="M118.201 338.72C118.013 338.495 117.779 338.314 117.514 338.19C117.249 338.065 116.96 338 116.667 338H113.627L114.001 337.047C114.156 336.629 114.208 336.18 114.151 335.739C114.095 335.297 113.932 334.875 113.677 334.51C113.422 334.145 113.083 333.847 112.687 333.642C112.292 333.437 111.853 333.331 111.407 333.333C111.279 333.334 111.154 333.371 111.046 333.441C110.938 333.51 110.853 333.61 110.801 333.727L108.901 338H107.334C106.804 338 106.295 338.211 105.92 338.586C105.545 338.961 105.334 339.47 105.334 340V344.667C105.334 345.197 105.545 345.706 105.92 346.081C106.295 346.456 106.804 346.667 107.334 346.667H115.821C116.289 346.666 116.742 346.502 117.101 346.203C117.46 345.903 117.703 345.487 117.787 345.027L118.634 340.36C118.686 340.072 118.675 339.775 118.6 339.492C118.525 339.208 118.389 338.945 118.201 338.72ZM108.667 345.333H107.334C107.157 345.333 106.988 345.263 106.863 345.138C106.738 345.013 106.667 344.843 106.667 344.667V340C106.667 339.823 106.738 339.654 106.863 339.529C106.988 339.404 107.157 339.333 107.334 339.333H108.667V345.333ZM117.334 340.12L116.487 344.787C116.459 344.942 116.376 345.082 116.254 345.182C116.132 345.282 115.979 345.336 115.821 345.333H110.001V338.807L111.814 334.727C112.001 334.781 112.174 334.874 112.323 334.998C112.472 335.123 112.594 335.277 112.68 335.452C112.767 335.626 112.816 335.816 112.825 336.01C112.835 336.204 112.803 336.398 112.734 336.58L112.381 337.533C112.305 337.735 112.28 337.952 112.307 338.165C112.333 338.378 112.411 338.582 112.534 338.759C112.656 338.936 112.819 339.081 113.01 339.181C113.2 339.28 113.412 339.333 113.627 339.333H116.667C116.765 339.333 116.862 339.355 116.951 339.396C117.039 339.438 117.118 339.498 117.181 339.573C117.245 339.647 117.292 339.735 117.318 339.829C117.345 339.924 117.35 340.023 117.334 340.12Z" fill="#959DA5"/>
<rect x="48.5" y="192.5" width="343" height="171" rx="7.5" stroke="#E1E4E8"/>
</g>
<g filter="url(#filter2_d_11095_157787)">
<rect x="8" y="380" width="344" height="160" rx="8" fill="white"/>
<circle cx="36" cy="408" r="12" fill="#FFEAEF"/>
<rect x="56" y="396" width="112" height="8" rx="4" fill="#E1E4E8"/>
<rect x="56" y="408" width="80" height="8" rx="4" fill="#E1E4E8"/>
<rect x="24" y="428" width="272" height="8" rx="4" fill="#E1E4E8"/>
<rect x="23.5" y="443.5" width="313" height="57" rx="8.5" fill="#FAFBFC" stroke="#E1E4E8"/>
<g clip-path="url(#clip2_11095_157787)">
<path fill-rule="evenodd" clip-rule="evenodd" d="M157.199 480H171.199V482H157.199V480ZM157.199 483.667H171.199V485.667H157.199V483.667ZM171.199 487.167H157.199V496L164.366 492.167L171.199 496V487.167Z" fill="#FF6719"/>
</g>
<rect x="156" y="452" width="80" height="8" rx="4" fill="#E1E4E8"/>
<rect x="156" y="466" width="120" height="8" rx="4" fill="#E1E4E8"/>
<path d="M24 452C24 447.582 27.5817 444 32 444H148V500H32C27.5817 500 24 496.418 24 492V452Z" fill="#E1E4E8"/>
<path d="M32.6673 515.333H28.6673C28.4905 515.333 28.3209 515.404 28.1959 515.529C28.0709 515.654 28.0007 515.823 28.0007 516C28.0007 516.177 28.0709 516.346 28.1959 516.471C28.3209 516.596 28.4905 516.667 28.6673 516.667H32.6673C32.8441 516.667 33.0137 516.596 33.1387 516.471C33.2637 516.346 33.334 516.177 33.334 516C33.334 515.823 33.2637 515.654 33.1387 515.529C33.0137 515.404 32.8441 515.333 32.6673 515.333ZM35.334 512.667H28.6673C28.4905 512.667 28.3209 512.737 28.1959 512.862C28.0709 512.987 28.0007 513.157 28.0007 513.333C28.0007 513.51 28.0709 513.68 28.1959 513.805C28.3209 513.93 28.4905 514 28.6673 514H35.334C35.5108 514 35.6804 513.93 35.8054 513.805C35.9304 513.68 36.0007 513.51 36.0007 513.333C36.0007 513.157 35.9304 512.987 35.8054 512.862C35.6804 512.737 35.5108 512.667 35.334 512.667ZM36.6673 509.333H27.334C26.8036 509.333 26.2948 509.544 25.9198 509.919C25.5447 510.294 25.334 510.803 25.334 511.333V518C25.334 518.53 25.5447 519.039 25.9198 519.414C26.2948 519.789 26.8036 520 27.334 520H35.0607L37.5273 522.473C37.5896 522.535 37.6635 522.584 37.7447 522.617C37.8259 522.65 37.9129 522.667 38.0007 522.667C38.0881 522.669 38.1749 522.651 38.254 522.613C38.3757 522.563 38.4799 522.478 38.5535 522.369C38.6271 522.26 38.6667 522.132 38.6673 522V511.333C38.6673 510.803 38.4566 510.294 38.0815 509.919C37.7065 509.544 37.1978 509.333 36.6673 509.333ZM37.334 520.393L35.8073 518.86C35.745 518.798 35.6711 518.749 35.5899 518.716C35.5087 518.683 35.4217 518.666 35.334 518.667H27.334C27.1572 518.667 26.9876 518.596 26.8626 518.471C26.7376 518.346 26.6673 518.177 26.6673 518V511.333C26.6673 511.157 26.7376 510.987 26.8626 510.862C26.9876 510.737 27.1572 510.667 27.334 510.667H36.6673C36.8441 510.667 37.0137 510.737 37.1387 510.862C37.2637 510.987 37.334 511.157 37.334 511.333V520.393Z" fill="#959DA5"/>
<path d="M78.2007 514.72C78.0133 514.495 77.7789 514.314 77.514 514.19C77.249 514.065 76.96 514 76.6673 514H73.6273L74.0007 513.047C74.1559 512.629 74.2077 512.18 74.1514 511.739C74.0951 511.297 73.9324 510.875 73.6774 510.51C73.4224 510.145 73.0827 509.847 72.6873 509.642C72.2919 509.437 71.8527 509.331 71.4073 509.333C71.2791 509.334 71.1536 509.371 71.046 509.441C70.9384 509.51 70.8532 509.61 70.8007 509.727L68.9007 514H67.334C66.8036 514 66.2948 514.211 65.9198 514.586C65.5447 514.961 65.334 515.47 65.334 516V520.667C65.334 521.197 65.5447 521.706 65.9198 522.081C66.2948 522.456 66.8036 522.667 67.334 522.667H75.8207C76.2885 522.666 76.7415 522.502 77.1009 522.203C77.4602 521.903 77.7031 521.487 77.7873 521.027L78.634 516.36C78.6864 516.072 78.6747 515.775 78.5998 515.492C78.5249 515.208 78.3886 514.945 78.2007 514.72ZM68.6673 521.333H67.334C67.1572 521.333 66.9876 521.263 66.8626 521.138C66.7376 521.013 66.6673 520.843 66.6673 520.667V516C66.6673 515.823 66.7376 515.654 66.8626 515.529C66.9876 515.404 67.1572 515.333 67.334 515.333H68.6673V521.333ZM77.334 516.12L76.4873 520.787C76.4589 520.942 76.3763 521.082 76.2542 521.182C76.1322 521.282 75.9785 521.336 75.8207 521.333H70.0007V514.807L71.814 510.727C72.0006 510.781 72.174 510.874 72.3231 510.998C72.4722 511.123 72.5938 511.277 72.6802 511.452C72.7667 511.626 72.8161 511.816 72.8254 512.01C72.8346 512.204 72.8035 512.398 72.734 512.58L72.3807 513.533C72.3054 513.735 72.2799 513.952 72.3066 514.165C72.3332 514.378 72.4111 514.582 72.5335 514.759C72.656 514.936 72.8195 515.081 73.0099 515.181C73.2004 515.28 73.4122 515.333 73.6273 515.333H76.6673C76.7653 515.333 76.862 515.355 76.9508 515.396C77.0395 515.438 77.118 515.498 77.1807 515.573C77.2449 515.647 77.2919 515.735 77.3184 515.829C77.3449 515.924 77.3502 516.023 77.334 516.12Z" fill="#959DA5"/>
<rect x="8.5" y="380.5" width="343" height="159" rx="7.5" stroke="#E1E4E8"/>
</g>
<defs>
<filter id="filter0_d_11095_157787" x="0" y="2" width="360" height="188" filterUnits="userSpaceOnUse" color-interpolation-filters="sRGB">
<feFlood flood-opacity="0" result="BackgroundImageFix"/>
<feColorMatrix in="SourceAlpha" type="matrix" values="0 0 0 0 0 0 0 0 0 0 0 0 0 0 0 0 0 0 127 0" result="hardAlpha"/>
<feOffset dy="6"/>
<feGaussianBlur stdDeviation="4"/>
<feComposite in2="hardAlpha" operator="out"/>
<feColorMatrix type="matrix" values="0 0 0 0 0 0 0 0 0 0 0 0 0 0 0 0 0 0 0.03 0"/>
<feBlend mode="normal" in2="BackgroundImageFix" result="effect1_dropShadow_11095_157787"/>
<feBlend mode="normal" in="SourceGraphic" in2="effect1_dropShadow_11095_157787" result="shape"/>
</filter>
<filter id="filter1_d_11095_157787" x="40" y="190" width="360" height="188" filterUnits="userSpaceOnUse" color-interpolation-filters="sRGB">
<feFlood flood-opacity="0" result="BackgroundImageFix"/>
<feColorMatrix in="SourceAlpha" type="matrix" values="0 0 0 0 0 0 0 0 0 0 0 0 0 0 0 0 0 0 127 0" result="hardAlpha"/>
<feOffset dy="6"/>
<feGaussianBlur stdDeviation="4"/>
<feComposite in2="hardAlpha" operator="out"/>
<feColorMatrix type="matrix" values="0 0 0 0 0 0 0 0 0 0 0 0 0 0 0 0 0 0 0.03 0"/>
<feBlend mode="normal" in2="BackgroundImageFix" result="effect1_dropShadow_11095_157787"/>
<feBlend mode="normal" in="SourceGraphic" in2="effect1_dropShadow_11095_157787" result="shape"/>
</filter>
<filter id="filter2_d_11095_157787" x="0" y="378" width="360" height="176" filterUnits="userSpaceOnUse" color-interpolation-filters="sRGB">
<feFlood flood-opacity="0" result="BackgroundImageFix"/>
<feColorMatrix in="SourceAlpha" type="matrix" values="0 0 0 0 0 0 0 0 0 0 0 0 0 0 0 0 0 0 127 0" result="hardAlpha"/>
<feOffset dy="6"/>
<feGaussianBlur stdDeviation="4"/>
<feComposite in2="hardAlpha" operator="out"/>
<feColorMatrix type="matrix" values="0 0 0 0 0 0 0 0 0 0 0 0 0 0 0 0 0 0 0.03 0"/>
<feBlend mode="normal" in2="BackgroundImageFix" result="effect1_dropShadow_11095_157787"/>
<feBlend mode="normal" in="SourceGraphic" in2="effect1_dropShadow_11095_157787" result="shape"/>
</filter>
<clipPath id="clip0_11095_157787">
<rect width="16" height="16" fill="white" transform="translate(196 304)"/>
</clipPath>
<clipPath id="clip1_11095_157787">
<rect width="16" height="16" fill="white" transform="translate(196.02 304)"/>
</clipPath>
<clipPath id="clip2_11095_157787">
<rect width="16" height="16" fill="white" transform="translate(156 480)"/>
</clipPath>
</defs>
</svg>
