<svg width="106" height="32" viewBox="0 0 106 32" fill="none" xmlns="http://www.w3.org/2000/svg">
<path d="M38.8574 10.8773H40.5309L40.735 12.3059H40.8778C41.218 11.7617 41.6737 11.3467 42.2452 11.061C42.8302 10.7753 43.4765 10.6324 44.184 10.6324C45.5445 10.6324 46.5921 11.095 47.3268 12.0202C48.0615 12.9318 48.4288 14.3399 48.4288 16.2447C48.4288 18.1222 48.0615 19.5304 47.3268 20.4692C46.5921 21.3943 45.5921 21.8569 44.3268 21.8569C42.8438 21.8569 41.7622 21.3671 41.0819 20.3875H40.9595V25.1426H38.8574V10.8773ZM43.5921 20.0814C44.5581 20.0814 45.2452 19.7957 45.6533 19.2243C46.0615 18.6529 46.2656 17.7005 46.2656 16.3671V16.1835C46.2656 14.8229 46.0615 13.8569 45.6533 13.2855C45.2452 12.7005 44.5581 12.408 43.5921 12.408C42.6806 12.408 42.0139 12.7277 41.5921 13.3671C41.1703 14.0066 40.9595 14.9454 40.9595 16.1835V16.3467C40.9595 17.5712 41.1703 18.5032 41.5921 19.1426C42.0139 19.7685 42.6806 20.0814 43.5921 20.0814Z" fill="white"/>
<path d="M55.0664 21.8569C53.3386 21.8569 52.0528 21.4011 51.2093 20.4896C50.3658 19.578 49.944 18.1631 49.944 16.2447C49.944 14.3263 50.3658 12.9114 51.2093 11.9998C52.0528 11.0882 53.3386 10.6324 55.0664 10.6324C56.6311 10.6324 57.8011 11.061 58.5767 11.9182C59.3522 12.7617 59.7399 14.1086 59.7399 15.959V16.7753H52.1073C52.1617 17.9318 52.4202 18.7889 52.8828 19.3467C53.359 19.8909 54.0937 20.1631 55.0869 20.1631C55.8624 20.1631 56.4882 19.9794 56.9644 19.612C57.4406 19.2447 57.6787 18.6801 57.6787 17.9182H59.7399C59.7399 19.1971 59.3045 20.1767 58.4338 20.8569C57.5766 21.5236 56.4542 21.8569 55.0664 21.8569ZM57.5562 15.1835C57.5562 13.2787 56.7263 12.3263 55.0664 12.3263C54.1413 12.3263 53.4474 12.5576 52.9848 13.0202C52.5222 13.4692 52.2433 14.1903 52.1481 15.1835H57.5562Z" fill="white"/>
<path d="M66.4065 21.8569C64.6786 21.8569 63.3929 21.4011 62.5494 20.4896C61.7058 19.578 61.2841 18.1631 61.2841 16.2447C61.2841 14.3263 61.7058 12.9114 62.5494 11.9998C63.3929 11.0882 64.6786 10.6324 66.4065 10.6324C67.9712 10.6324 69.1412 11.061 69.9167 11.9182C70.6922 12.7617 71.08 14.1086 71.08 15.959V16.7753H63.4473C63.5018 17.9318 63.7603 18.7889 64.2229 19.3467C64.699 19.8909 65.4337 20.1631 66.4269 20.1631C67.2024 20.1631 67.8283 19.9794 68.3045 19.612C68.7807 19.2447 69.0188 18.6801 69.0188 17.9182H71.08C71.08 19.1971 70.6446 20.1767 69.7739 20.8569C68.9167 21.5236 67.7943 21.8569 66.4065 21.8569ZM68.8963 15.1835C68.8963 13.2787 68.0664 12.3263 66.4065 12.3263C65.4814 12.3263 64.7875 12.5576 64.3249 13.0202C63.8623 13.4692 63.5834 14.1903 63.4882 15.1835H68.8963Z" fill="white"/>
<path d="M73.2364 10.8773H74.9303L75.1344 12.5304H75.2568C75.7466 11.2651 76.5697 10.6324 77.7262 10.6324C78.1072 10.6324 78.4405 10.6869 78.7262 10.7957V12.7957H77.9711C77.1684 12.7957 76.5289 13.027 76.0527 13.4896C75.5765 13.9522 75.3384 14.6597 75.3384 15.612V21.612H73.2364V10.8773Z" fill="white"/>
<path d="M80.3713 6.85693H82.4733V21.612H80.3713V6.85693Z" fill="white"/>
<path d="M85.2541 6.85693H87.3357V8.99979H85.2541V6.85693ZM85.2541 10.8773H87.3561V21.612H85.2541V10.8773Z" fill="white"/>
<path d="M93.9941 21.8569C92.5247 21.8569 91.4022 21.5508 90.6267 20.9386C89.8648 20.3263 89.4839 19.5576 89.4839 18.6324C89.4839 18.4828 89.4839 18.3875 89.4839 18.3467C89.4975 18.2923 89.5043 18.2583 89.5043 18.2447H91.5655V18.4284C91.5655 19.0134 91.8036 19.4556 92.2798 19.7549C92.756 20.0406 93.3614 20.1835 94.0961 20.1835C94.7492 20.1835 95.2934 20.061 95.7288 19.8161C96.1777 19.5712 96.4022 19.2243 96.4022 18.7753C96.4022 18.4216 96.2798 18.1358 96.0349 17.9182C95.79 17.6869 95.4907 17.51 95.1369 17.3875C94.7832 17.2515 94.273 17.095 93.6063 16.9182C92.79 16.7141 92.1233 16.51 91.6063 16.3059C91.0893 16.1018 90.6471 15.7957 90.2798 15.3875C89.926 14.9794 89.7492 14.4352 89.7492 13.7549C89.7492 12.7753 90.1505 12.0134 90.9532 11.4692C91.756 10.9114 92.824 10.6324 94.1573 10.6324C94.9873 10.6324 95.7083 10.7617 96.3206 11.0202C96.9464 11.2651 97.4226 11.612 97.7492 12.061C98.0893 12.51 98.2594 13.0134 98.2594 13.5712L98.239 13.9794H96.1777V13.8365C96.1777 13.3875 95.9941 13.027 95.6267 12.7549C95.273 12.4692 94.722 12.3263 93.9737 12.3263C93.2526 12.3263 92.722 12.4556 92.3818 12.7141C92.0553 12.959 91.892 13.2515 91.892 13.5916C91.892 14.0134 92.0961 14.3263 92.5043 14.5304C92.9124 14.7345 93.5587 14.9386 94.443 15.1426C95.3002 15.3467 96.0009 15.5576 96.5451 15.7753C97.0893 15.9794 97.5587 16.3059 97.9532 16.7549C98.3478 17.1903 98.5451 17.7753 98.5451 18.51C98.5451 19.6529 98.1301 20.4964 97.3002 21.0406C96.4839 21.5848 95.3818 21.8569 93.9941 21.8569Z" fill="white"/>
<path d="M103.251 21.8365C102.435 21.8365 101.843 21.6052 101.476 21.1426C101.108 20.6665 100.925 20.0814 100.925 19.3875V12.612H99.6186V10.8773H100.945L101.353 7.87734H103.027V10.8773H104.843V12.612H103.027V19.1835C103.027 19.8093 103.319 20.1222 103.904 20.1222H104.843V21.5508C104.666 21.6324 104.421 21.7005 104.108 21.7549C103.809 21.8093 103.523 21.8365 103.251 21.8365Z" fill="white"/>
<path d="M32 16C32 24.8366 24.8366 32 16 32C7.16344 32 0 24.8366 0 16C0 7.16344 7.16344 0 16 0C24.8366 0 32 7.16344 32 16Z" fill="#6A737D"/>
<path fill-rule="evenodd" clip-rule="evenodd" d="M16 30.8571C24.2054 30.8571 30.8571 24.2054 30.8571 16C30.8571 7.79463 24.2054 1.14286 16 1.14286C7.79463 1.14286 1.14286 7.79463 1.14286 16C1.14286 24.2054 7.79463 30.8571 16 30.8571ZM16 32C24.8366 32 32 24.8366 32 16C32 7.16344 24.8366 0 16 0C7.16344 0 0 7.16344 0 16C0 24.8366 7.16344 32 16 32Z" fill="#24292E"/>
<path fill-rule="evenodd" clip-rule="evenodd" d="M15.4734 7.42871H8.57227V26.8573H13.9349V22.7938H15.4734C19.8468 22.7938 23.4294 19.3743 23.4294 15.1113C23.4294 10.8482 19.8468 7.42871 15.4734 7.42871ZM13.9349 17.5874V12.6351H15.4734C16.9262 12.6351 18.0668 13.7638 18.0668 15.1113C18.0668 16.4587 16.9262 17.5874 15.4734 17.5874H13.9349Z" fill="#24292E"/>
<path fill-rule="evenodd" clip-rule="evenodd" d="M10.2871 6.85693H16.6168C20.6952 6.85693 24.0014 10.0407 24.0014 13.968C24.0014 17.8954 20.6952 21.0792 16.6168 21.0792H14.5069V25.1427H10.2871V6.85693ZM14.5069 17.0157H16.6168C18.3647 17.0157 19.7816 15.6512 19.7816 13.968C19.7816 12.2849 18.3647 10.9204 16.6168 10.9204H14.5069V17.0157Z" fill="white"/>
<path fill-rule="evenodd" clip-rule="evenodd" d="M9.71484 6.28564H16.6159C20.9894 6.28564 24.572 9.7051 24.572 13.9682C24.572 18.2313 20.9894 21.6507 16.6159 21.6507H15.0775V25.7142H9.71484V6.28564ZM10.8577 7.4285V24.5714H13.9346V20.5079H16.6159C20.3993 20.5079 23.4291 17.5598 23.4291 13.9682C23.4291 10.3766 20.3993 7.4285 16.6159 7.4285H10.8577ZM13.9346 10.3491H16.6159C18.6589 10.3491 20.3522 11.9493 20.3522 13.9682C20.3522 15.9871 18.6589 17.5872 16.6159 17.5872H13.9346V10.3491ZM15.0775 11.492V16.4444H16.6159C18.0688 16.4444 19.2094 15.3156 19.2094 13.9682C19.2094 12.6208 18.0688 11.492 16.6159 11.492H15.0775Z" fill="#24292E"/>
</svg>
