<svg width="40" height="40" viewBox="0 0 40 40" fill="none" xmlns="http://www.w3.org/2000/svg">
<path fill-rule="evenodd" clip-rule="evenodd" d="M37.8714 12.5879C30.3639 26.5479 15.367 32.2234 1.43811 24.3643C0.974413 24.1026 0.386395 24.2662 0.124697 24.7242C-0.137001 25.1903 0.0265778 25.7791 0.490274 26.0408C15.4202 34.4724 31.5219 28.4616 39.5692 13.5039C39.8211 13.0377 39.6452 12.4488 39.1766 12.1953C38.708 11.95 38.1233 12.1218 37.8714 12.5879Z" fill="#381FD1"/>
<path d="M13.1595 18.3771C14.7103 18.3771 15.9675 17.12 15.9675 15.5692C15.9675 14.0184 14.7103 12.7612 13.1595 12.7612C11.6087 12.7612 10.3516 14.0184 10.3516 15.5692C10.3516 17.12 11.6087 18.3771 13.1595 18.3771Z" fill="#381FD1"/>
<path d="M24.7843 15.3902C26.3048 15.3902 27.5374 14.1576 27.5374 12.6371C27.5374 11.1166 26.3048 9.88403 24.7843 9.88403C23.2638 9.88403 22.0312 11.1166 22.0312 12.6371C22.0312 14.1576 23.2638 15.3902 24.7843 15.3902Z" fill="#381FD1"/>
</svg>
